<svg xmlns="http://www.w3.org/2000/svg" xmlns:xlink="http://www.w3.org/1999/xlink" viewBox="0,0,256,256" width="64px" height="64px" fill-rule="nonzero"><g transform="translate(76.8,76.8) scale(0.4,0.4)"><g fill="#80ff00" fill-rule="nonzero" stroke="none" stroke-width="1" stroke-linecap="butt" stroke-linejoin="miter" stroke-miterlimit="10" stroke-dasharray="" stroke-dashoffset="0" font-family="none" font-weight="none" font-size="none" text-anchor="none" style="mix-blend-mode: normal"><g transform="scale(3.55556,3.55556)"><path d="M36,10c-7.72,0 -14,6.28 -14,14v4.58789c-2.9302,1.18758 -5,4.05608 -5,7.41211v16c0,4.418 3.582,8 8,8h22c4.418,0 8,-3.582 8,-8v-16c0,-3.35603 -2.0698,-6.22453 -5,-7.41211v-4.58789c0,-7.72 -6.28,-14 -14,-14zM36,18c3.309,0 6,2.691 6,6v4h-12v-4c0,-3.309 2.691,-6 6,-6z"></path></g></g></g></svg>